<?xml version="1.0" encoding="UTF-8" standalone="no"?>
<!-- Created with Inkscape (http://www.inkscape.org/) -->

<svg
        width="182.38708mm"
        height="112.86283mm"
        viewBox="0 0 182.38708 112.86283"
        version="1.1"
        id="svg5"
        inkscape:version="1.2.1 (9c6d41e410, 2022-07-14)"
        sodipodi:docname="Draggable-Card.svg"
        xmlns:inkscape="http://www.inkscape.org/namespaces/inkscape"
        xmlns:sodipodi="http://sodipodi.sourceforge.net/DTD/sodipodi-0.dtd"
        xmlns="http://www.w3.org/2000/svg"
>
  <sodipodi:namedview
     id="namedview7"
     pagecolor="#ffffff"
     bordercolor="#000000"
     borderopacity="0.25"
     inkscape:showpageshadow="2"
     inkscape:pageopacity="0.0"
     inkscape:pagecheckerboard="0"
     inkscape:deskcolor="#d1d1d1"
     inkscape:document-units="mm"
     showgrid="false"
     inkscape:zoom="0.7071068"
     inkscape:cx="433.45645"
     inkscape:cy="86.267025"
     inkscape:window-width="1920"
     inkscape:window-height="1017"
     inkscape:window-x="-8"
     inkscape:window-y="-8"
     inkscape:window-maximized="1"
     inkscape:current-layer="layer1" />
  <defs
     id="defs2">
    <inkscape:path-effect
       effect="fillet_chamfer"
       id="path-effect2790"
       is_visible="true"
       lpeversion="1"
       nodesatellites_param="F,0,0,1,0,5.55625,0,1 @ F,0,0,1,0,5.55625,0,1 @ F,0,0,1,0,5.55625,0,1 @ F,0,0,1,0,5.55625,0,1"
       unit="px"
       method="auto"
       mode="F"
       radius="21"
       chamfer_steps="1"
       flexible="false"
       use_knot_distance="true"
       apply_no_radius="true"
       apply_with_radius="true"
       only_selected="false"
       hide_knots="false" />
  </defs>
  <g
     inkscape:label="Ebene 1"
     inkscape:groupmode="layer"
     id="layer1"
     transform="translate(-16.67742,-26.612902)">
    <path
       style="display:inline;fill:#00008b;fill-opacity:1;stroke-width:0.264999;stroke-dasharray:none"
       id="rect2788"
       width="182.38708"
       height="61.387096"
       x="16.67742"
       y="26.612902"
       inkscape:path-effect="#path-effect2790"
       d="m 22.23367,26.612902 h 171.27458 a 5.55625,5.55625 45 0 1 5.55625,5.55625 v 50.274596 a 5.55625,5.55625 135 0 1 -5.55625,5.55625 l -171.27458,0 a 5.55625,5.55625 45 0 1 -5.55625,-5.55625 V 32.169152 a 5.55625,5.55625 135 0 1 5.55625,-5.55625 z"
       sodipodi:type="rect" />
    <g
       id="g172"
       inkscape:label="g172"
       transform="matrix(1.907631,0,0,1.5598138,-84.865782,-19.014734)">
      <path
         style="fill:#ffffff;fill-opacity:1;stroke:#000000;stroke-width:0.61276143;stroke-dasharray:none;stroke-opacity:1"
         d="m 100.58665,36.422246 12.7742,62.806447 7.09677,-2.12903 z"
         id="path5626"
         inkscape:label="path5626" />
      <path
         style="fill:#ffffff;fill-opacity:1;stroke:#000000;stroke-width:0.61276143;stroke-dasharray:none;stroke-opacity:1"
         d="m 100.9415,36.325813 -6.741937,64.935477 19.870967,-19.161287 22,7.80645 z"
         id="path5624" />
    </g>
    <path
       style="fill:#ffffff;stroke-width:1.057;stroke-dasharray:none"
       d="m 127.12989,116.11144 -1.59025,-5.58927 4.98123,-3.01681 5.09817,-0.23386 -3.92887,3.78855 z"
       id="path1756" />
    <path
       style="fill:#ffffff;stroke-width:1.057;stroke-dasharray:none"
       d="m 136.66556,113.38112 -1.77149,-4.46674 -1.42655,-0.23971 -0.76005,1.28039 c 0,0 1.3447,1.57271 1.36808,1.62533 0.0234,0.0526 2.59001,1.80073 2.59001,1.80073 z"
       id="path1758" />
  </g>
</svg>
